<?xml version="1.0" encoding="UTF-8"?>
<svg version="1.1" viewBox="0 0 48 48" xmlns="http://www.w3.org/2000/svg">
<path d="M22 38.5c1.867 0 3.667-.442 5.4-1.325s3.283-2.108 4.65-3.675C27.683 33.233 24 31.625 21 28.675S16.5 22.167 16.5 18a16.89 16.89 0 0 1 .075-1.45c.05-.567.158-1.233.325-2-2.2 1.233-3.983 2.858-5.35 4.875S9.5 23.633 9.5 26c0 3.433 1.225 6.375 3.675 8.825S18.567 38.5 22 38.5zm0 3c-4.3 0-7.958-1.508-10.975-4.525S6.5 30.3 6.5 26s1.508-7.958 4.525-10.975S17.7 10.5 22 10.5c-.767.9-1.375 2.008-1.825 3.325A12.82 12.82 0 0 0 19.5 18c0 3.433 1.225 6.375 3.675 8.825S28.567 30.5 32 30.5a12.66 12.66 0 0 0 2.675-.275A10.95 10.95 0 0 0 37.1 29.4c-.767 3.467-2.542 6.35-5.325 8.65S25.733 41.5 22 41.5z"/>
</svg>
